<svg width="367" height="158" viewBox="0 0 367 158" fill="none" xmlns="http://www.w3.org/2000/svg">
<path fill-rule="evenodd" clip-rule="evenodd" d="M365.24 48.0613C361.791 41.2973 359.617 40.5283 342.923 40.1683L327.992 39.8463L327.992 79.4183L327.992 118.99L342.258 118.99C358.48 118.99 361.951 117.92 365.165 111.928C366.812 108.857 366.992 105.715 366.99 80.0063C366.989 54.8343 366.784 51.0883 365.24 48.0613ZM298.976 13.8423C296.354 8.87928 289.796 3.47127 284.7 2.06927C281.95 1.31227 273.142 1.01128 259.285 1.20027L238.078 1.49027L268.643 53.9903C285.454 82.8653 299.61 106.918 300.1 107.44C300.623 107.997 300.974 89.6103 300.948 62.9403C300.906 20.0393 300.796 17.2853 298.976 13.8423ZM293.572 148.49C292.848 147.39 285.723 135.24 277.738 121.49C269.753 107.74 257.177 86.1403 249.792 73.4903C242.406 60.8403 233.467 45.4443 229.928 39.2773C226.388 33.1103 223.175 28.0483 222.788 28.0273C222.401 28.0073 219.634 32.1523 216.639 37.2403C202.443 61.3583 198.992 67.4623 198.992 68.4533C198.992 69.0413 204.279 78.5263 210.742 89.5313C217.205 100.535 228.792 120.431 236.492 133.743L250.492 157.948L266.677 157.969C283.266 157.991 286.07 157.511 291.735 153.682C295.385 151.215 295.378 151.236 293.572 148.49ZM201.849 125.99C191.982 109.215 183.59 95.5213 183.2 95.5603C182.811 95.5983 174.318 109.66 164.328 126.81L146.164 157.99L183.078 157.99C203.381 157.99 219.947 157.653 219.891 157.24C219.836 156.827 211.717 142.765 201.849 125.99ZM183.05 0.990272L159.109 0.990271L153.703 10.2403C150.73 15.3283 139.37 34.7903 128.459 53.4903C117.548 72.1903 100.356 101.619 90.2562 118.888C80.1562 136.157 72.1342 150.917 72.4292 151.688C72.7252 152.459 75.4012 154.203 78.3752 155.565C83.5212 157.921 84.5652 158.027 99.9742 157.765L116.167 157.49L156.157 88.9903C200.913 12.3263 206.992 1.84527 206.992 1.34127C206.992 1.14827 196.218 0.990273 183.05 0.990272ZM104.66 1.17427L81.3282 1.49027L76.4372 4.51627C73.4092 6.38927 70.3912 9.40827 68.5182 12.4363L65.4922 17.3303L65.2032 62.6603C65.0452 87.5913 65.2702 107.982 65.7032 107.973C66.1372 107.964 71.6372 99.0763 77.9252 88.2233C84.2132 77.3703 94.3672 59.9403 100.49 49.4903C122.886 11.2673 127.992 2.38227 127.992 1.62727C127.992 1.20427 117.493 0.999267 104.66 1.17427ZM24.9602 39.9903C8.9392 39.9903 5.17222 41.0063 2.01822 46.1803C0.111217 49.3073 0.000221196 51.1503 0.01022 79.4903C0.0222185 111.748 0.137214 112.546 5.31121 116.394C7.83521 118.27 9.74821 118.524 23.5612 118.81L38.9922 119.131L38.9922 79.5603L38.9922 39.9903L24.9602 39.9903Z" fill="#110E0F"/>
</svg>
