<svg width="249" height="186" viewBox="0 0 249 186" fill="none" xmlns="http://www.w3.org/2000/svg">
<path fill-rule="evenodd" clip-rule="evenodd" d="M35.5158 1.10366L34.412 2.20733V13.2764V24.3456H23.7472C16.5489 24.3456 12.724 24.4673 11.9789 24.7198C10.2661 25.3009 9.14061 26.2257 8.35205 27.7L7.62907 29.0524L7.53525 51.7749C7.48363 64.2723 7.51642 74.7895 7.60797 75.1466C7.69985 75.5037 14.1222 81.7848 21.8805 89.1047L35.9862 102.414L36.0154 111.827C36.0459 121.638 36.1862 122.728 37.4487 122.971C38.6232 123.197 39.5378 122.716 39.8984 121.681C40.1237 121.035 40.2607 117.294 40.2702 111.535L40.2844 102.414L54.4732 89.0366L68.6617 75.6592L114.193 75.6465L159.724 75.6335V106.147V136.66H194.623H229.522V111.872V87.0837L231.614 86.9156C237.356 86.4549 242.354 81.7689 243.451 75.8172C243.892 73.4233 243.925 53.1772 243.492 50.5345C242.533 44.6786 237.859 40.1218 231.839 39.1743L229.577 38.8178L229.468 33.9351C229.342 28.2788 228.955 27.1281 226.624 25.4817L225.246 24.5079L204.821 24.4173L184.396 24.3267V12.7006C184.396 1.84961 184.357 1.03874 183.803 0.537225C182.932 -0.250597 181.295 -0.153864 180.681 0.721602C180.247 1.34128 180.176 3.0552 180.176 12.8944V24.3456H111.027H41.8787V13.6173C41.8787 2.10995 41.8193 1.65128 40.1851 0.506712C39.7874 0.227874 38.8223 0 38.0405 0C36.8575 0 36.4348 0.184701 35.5158 1.10366ZM198.078 49.6594C208.379 52.874 209.402 66.8863 199.685 71.658C198.053 72.4595 197.523 72.5494 194.46 72.5475C191.356 72.5455 190.897 72.4637 189.319 71.635C187.001 70.4174 184.859 68.214 183.802 65.9589C183.043 64.3391 182.936 63.7078 182.939 60.8639C182.942 57.9483 183.034 57.4432 183.843 55.9019C186.776 50.3141 192.347 47.8711 198.078 49.6594ZM204.117 98.2061C205.659 98.8504 206.396 99.5334 207.156 101.021C207.714 102.116 207.771 103.031 207.771 111.055V119.885L206.959 121.269C206.366 122.282 205.679 122.883 204.399 123.509L202.651 124.365L194.067 124.263L185.483 124.162L184.135 123.269C181.586 121.582 181.475 121.062 181.475 110.85C181.475 101.288 181.528 100.92 183.148 99.4506C184.989 97.7795 185.287 97.7338 194.389 97.7198C201.355 97.7091 203.141 97.7983 204.117 98.2061ZM0 163.277V186H124.5H249V163.277V140.555H124.5H0V163.277ZM225.95 163.277V165.225H124.5H23.0495V163.277V161.33H124.5H225.95V163.277Z" fill="#110E0F"/>
</svg>
